<svg width="176" height="30" viewBox="0 0 176 30" fill="none" xmlns="http://www.w3.org/2000/svg">
<path d="M27.5002 26C26.2006 26 25.4 25.4 24.0918 24.6934C22.7836 23.9867 19 21.1416 19 17.6C19 15.1975 18.3806 13.2543 17.3259 11.7057C16.2791 10.169 14.8609 9.10428 13.3855 8.35272C12.6746 7.99064 11.9347 7.69452 11.198 7.4498C10.7685 7.30724 10.5193 6.84608 10.7056 6.4338C11.8867 3.81916 14.517 2 17.5724 2C21.7316 2 25.1035 5.37168 25.1035 9.53104C25.1035 10.4209 24.9492 11.2748 24.6658 12.0672C25.8662 11.2582 27.3126 10.7861 28.869 10.7861C33.0282 10.7861 36.3998 14.1578 36.3998 18.3172C36.3998 23.3244 31.9998 26 27.5002 26Z" fill="#8FB2F5"/>
<path d="M0 17.6896C0 21.6593 2.6172 24.967 6.08436 25.6978C6.61952 25.8933 7.19728 26 7.8 26H19.501C19.8934 26 20.0642 25.4752 19.7646 25.2217C17.7197 23.4914 16.2 21.0529 16.2 17.6C16.2 15.7027 15.7195 14.3209 15.0117 13.282C14.2959 12.2312 13.2891 11.4459 12.1146 10.8475C10.9293 10.2437 9.6424 9.85914 8.41348 9.5865C8.12404 9.54998 7.82948 9.53102 7.53104 9.53102C3.37168 9.53102 0 13.1838 0 17.6896Z" fill="#8FB2F5"/>
<path d="M47.1663 22.1732C46.7766 22.1732 46.4591 22.0794 46.2137 21.8917C45.9828 21.7041 45.7951 21.4082 45.6508 21.0041L41.1258 8.20844C40.967 7.74656 40.9959 7.35685 41.2124 7.0393C41.4433 6.72176 41.8258 6.56298 42.3599 6.56298C42.7496 6.56298 43.0527 6.6568 43.2692 6.84444C43.4857 7.01765 43.6589 7.29911 43.7888 7.68883L47.686 19.2503H46.8199L50.8903 7.71048C51.0346 7.32076 51.215 7.03208 51.4316 6.84444C51.6481 6.6568 51.9295 6.56298 52.2759 6.56298C52.6223 6.56298 52.8966 6.6568 53.0987 6.84444C53.3007 7.03208 53.4739 7.32798 53.6183 7.73213L57.5587 19.2503H56.8009L60.763 7.68883C60.8929 7.31354 61.0662 7.03208 61.2827 6.84444C61.4992 6.6568 61.7951 6.56298 62.1703 6.56298C62.6322 6.56298 62.9714 6.72176 63.1879 7.0393C63.4044 7.35685 63.4333 7.74656 63.2745 8.20844L58.7062 21.0257C58.5619 21.4154 58.3742 21.7041 58.1433 21.8917C57.9124 22.0794 57.602 22.1732 57.2123 22.1732C56.8226 22.1732 56.5123 22.0794 56.2813 21.8917C56.0504 21.7041 55.8627 21.4082 55.7184 21.0041L51.9512 10.2653H52.4491L48.6386 21.0257C48.4943 21.4154 48.3066 21.7041 48.0757 21.8917C47.8592 22.0794 47.5561 22.1732 47.1663 22.1732ZM69.5052 22.2165C68.3072 22.2165 67.2752 21.9928 66.4092 21.5453C65.5431 21.0979 64.872 20.4628 64.3956 19.6401C63.9338 18.8173 63.7028 17.843 63.7028 16.7172C63.7028 15.6202 63.9265 14.6604 64.374 13.8377C64.8359 13.0149 65.4637 12.3726 66.2576 11.9107C67.0659 11.4344 67.9825 11.1963 69.0073 11.1963C69.7578 11.1963 70.429 11.3189 71.0208 11.5643C71.627 11.8097 72.1394 12.1633 72.558 12.6252C72.991 13.0871 73.3158 13.65 73.5323 14.314C73.7632 14.9635 73.8787 15.6996 73.8787 16.5223C73.8787 16.7822 73.7849 16.9842 73.5972 17.1286C73.424 17.2585 73.1714 17.3234 72.8394 17.3234H65.8895V15.7646H71.9734L71.627 16.0893C71.627 15.4254 71.526 14.8697 71.3239 14.4222C71.1363 13.9748 70.8548 13.6356 70.4795 13.4046C70.1187 13.1593 69.664 13.0366 69.1155 13.0366C68.5093 13.0366 67.9897 13.1809 67.5567 13.4696C67.1381 13.7438 66.8133 14.1408 66.5824 14.6604C66.3659 15.1656 66.2576 15.7718 66.2576 16.479V16.6306C66.2576 17.8142 66.5319 18.7019 67.0803 19.2937C67.6433 19.871 68.466 20.1597 69.5485 20.1597C69.9238 20.1597 70.3424 20.1164 70.8043 20.0298C71.2806 19.9287 71.728 19.7628 72.1466 19.5318C72.4497 19.3586 72.7168 19.2864 72.9477 19.3153C73.1786 19.3297 73.3591 19.4091 73.489 19.5535C73.6333 19.6978 73.7199 19.8782 73.7488 20.0947C73.7777 20.2968 73.7343 20.5061 73.6189 20.7226C73.5178 20.9391 73.3374 21.1268 73.0776 21.2855C72.5724 21.6031 71.9879 21.8412 71.3239 22C70.6744 22.1443 70.0681 22.2165 69.5052 22.2165ZM79.5077 22.2165C78.7427 22.2165 78.0571 22.0722 77.4509 21.7835C76.8591 21.4804 76.39 21.0762 76.0436 20.571C75.7116 20.0659 75.5456 19.4957 75.5456 18.8606C75.5456 18.0812 75.7477 17.4678 76.1519 17.0203C76.556 16.5584 77.2127 16.2265 78.1221 16.0244C79.0314 15.8223 80.2511 15.7213 81.7811 15.7213H82.8636V17.2801H81.8027C80.9078 17.2801 80.1933 17.3234 79.6593 17.41C79.1252 17.4966 78.7427 17.6482 78.5118 17.8647C78.2953 18.0668 78.187 18.3554 78.187 18.7307C78.187 19.207 78.353 19.5968 78.685 19.8999C79.017 20.203 79.4789 20.3545 80.0706 20.3545C80.547 20.3545 80.9655 20.2463 81.3264 20.0298C81.7017 19.7988 81.9976 19.4885 82.2141 19.0988C82.4306 18.7091 82.5388 18.2616 82.5388 17.7564V15.2666C82.5388 14.5449 82.3801 14.0253 82.0625 13.7077C81.745 13.3902 81.2109 13.2314 80.4604 13.2314C80.0418 13.2314 79.5871 13.2819 79.0964 13.383C78.62 13.484 78.1149 13.6572 77.5808 13.9026C77.3066 14.0325 77.0612 14.0686 76.8447 14.0109C76.6426 13.9531 76.4838 13.8377 76.3684 13.6644C76.2529 13.4768 76.1952 13.2747 76.1952 13.0582C76.1952 12.8417 76.2529 12.6324 76.3684 12.4303C76.4838 12.2138 76.6787 12.0551 76.9529 11.954C77.6169 11.6798 78.252 11.4849 78.8582 11.3695C79.4789 11.254 80.0418 11.1963 80.547 11.1963C81.5862 11.1963 82.4378 11.355 83.1018 11.6726C83.7801 11.9901 84.2853 12.4737 84.6173 13.1232C84.9493 13.7583 85.1153 14.581 85.1153 15.5914V20.7876C85.1153 21.235 85.007 21.5814 84.7905 21.8268C84.574 22.0577 84.2637 22.1732 83.8595 22.1732C83.4554 22.1732 83.1378 22.0577 82.9069 21.8268C82.6904 21.5814 82.5821 21.235 82.5821 20.7876V19.7483H82.7553C82.6543 20.2535 82.4522 20.6937 82.1491 21.069C81.8604 21.4299 81.4924 21.7113 81.0449 21.9134C80.5975 22.1155 80.0851 22.2165 79.5077 22.2165ZM92.712 22.2165C91.7738 22.2165 90.9872 22.0577 90.3521 21.7402C89.7314 21.4226 89.2695 20.9608 88.9664 20.3545C88.6633 19.7339 88.5118 18.9689 88.5118 18.0596V13.4479H87.3859C87.0395 13.4479 86.7725 13.3613 86.5848 13.1881C86.3972 13.0005 86.3034 12.7479 86.3034 12.4303C86.3034 12.0984 86.3972 11.8458 86.5848 11.6726C86.7725 11.4994 87.0395 11.4128 87.3859 11.4128H88.5118V9.44254C88.5118 8.99509 88.6272 8.65589 88.8582 8.42495C89.1035 8.19401 89.4427 8.07854 89.8758 8.07854C90.3088 8.07854 90.6407 8.19401 90.8717 8.42495C91.1026 8.65589 91.2181 8.99509 91.2181 9.44254V11.4128H93.5131C93.8595 11.4128 94.1265 11.4994 94.3142 11.6726C94.5018 11.8458 94.5956 12.0984 94.5956 12.4303C94.5956 12.7479 94.5018 13.0005 94.3142 13.1881C94.1265 13.3613 93.8595 13.4479 93.5131 13.4479H91.2181V17.908C91.2181 18.6008 91.3697 19.1204 91.6728 19.4669C91.9759 19.8133 92.4666 19.9865 93.145 19.9865C93.3904 19.9865 93.6069 19.9648 93.7945 19.9215C93.9822 19.8782 94.1482 19.8494 94.2925 19.8349C94.4657 19.8205 94.6101 19.8782 94.7255 20.0081C94.841 20.1236 94.8987 20.369 94.8987 20.7443C94.8987 21.0329 94.8482 21.2927 94.7472 21.5237C94.6606 21.7402 94.4946 21.8917 94.2492 21.9783C94.0616 22.0361 93.8162 22.0866 93.5131 22.1299C93.21 22.1876 92.9429 22.2165 92.712 22.2165ZM97.7888 22.1732C97.3558 22.1732 97.0238 22.0577 96.7928 21.8268C96.5619 21.5814 96.4464 21.235 96.4464 20.7876V7.92698C96.4464 7.47953 96.5619 7.14034 96.7928 6.9094C97.0238 6.67845 97.3558 6.56298 97.7888 6.56298C98.2218 6.56298 98.5538 6.67845 98.7847 6.9094C99.0301 7.14034 99.1528 7.47953 99.1528 7.92698V13.5345H98.8497C99.1672 12.7695 99.658 12.1922 100.322 11.8025C101 11.3983 101.765 11.1963 102.617 11.1963C103.468 11.1963 104.169 11.355 104.717 11.6726C105.266 11.9901 105.677 12.4737 105.951 13.1232C106.225 13.7583 106.362 14.5666 106.362 15.5481V20.7876C106.362 21.235 106.247 21.5814 106.016 21.8268C105.785 22.0577 105.453 22.1732 105.02 22.1732C104.587 22.1732 104.248 22.0577 104.003 21.8268C103.772 21.5814 103.656 21.235 103.656 20.7876V15.678C103.656 14.8552 103.497 14.2562 103.18 13.881C102.877 13.5057 102.4 13.318 101.751 13.318C100.957 13.318 100.322 13.5706 99.8456 14.0758C99.3837 14.5666 99.1528 15.2233 99.1528 16.046V20.7876C99.1528 21.7113 98.6981 22.1732 97.7888 22.1732ZM114.329 22.2165C113.131 22.2165 112.099 21.9928 111.233 21.5453C110.367 21.0979 109.696 20.4628 109.22 19.6401C108.758 18.8173 108.527 17.843 108.527 16.7172C108.527 15.6202 108.75 14.6604 109.198 13.8377C109.66 13.0149 110.288 12.3726 111.082 11.9107C111.89 11.4344 112.806 11.1963 113.831 11.1963C114.582 11.1963 115.253 11.3189 115.845 11.5643C116.451 11.8097 116.963 12.1633 117.382 12.6252C117.815 13.0871 118.14 13.65 118.356 14.314C118.587 14.9635 118.703 15.6996 118.703 16.5223C118.703 16.7822 118.609 16.9842 118.421 17.1286C118.248 17.2585 117.995 17.3234 117.663 17.3234H110.713V15.7646H116.797L116.451 16.0893C116.451 15.4254 116.35 14.8697 116.148 14.4222C115.96 13.9748 115.679 13.6356 115.303 13.4046C114.943 13.1593 114.488 13.0366 113.939 13.0366C113.333 13.0366 112.814 13.1809 112.381 13.4696C111.962 13.7438 111.637 14.1408 111.406 14.6604C111.19 15.1656 111.082 15.7718 111.082 16.479V16.6306C111.082 17.8142 111.356 18.7019 111.904 19.2937C112.467 19.871 113.29 20.1597 114.372 20.1597C114.748 20.1597 115.166 20.1164 115.628 20.0298C116.105 19.9287 116.552 19.7628 116.971 19.5318C117.274 19.3586 117.541 19.2864 117.772 19.3153C118.003 19.3297 118.183 19.4091 118.313 19.5535C118.457 19.6978 118.544 19.8782 118.573 20.0947C118.602 20.2968 118.558 20.5061 118.443 20.7226C118.342 20.9391 118.161 21.1268 117.902 21.2855C117.396 21.6031 116.812 21.8412 116.148 22C115.498 22.1443 114.892 22.2165 114.329 22.2165ZM122.232 22.1732C121.784 22.1732 121.438 22.0577 121.192 21.8268C120.961 21.5814 120.846 21.235 120.846 20.7876V12.6036C120.846 12.1561 120.961 11.8169 121.192 11.586C121.423 11.355 121.748 11.2396 122.167 11.2396C122.585 11.2396 122.91 11.355 123.141 11.586C123.372 11.8169 123.487 12.1561 123.487 12.6036V13.9676H123.271C123.473 13.1015 123.87 12.4448 124.462 11.9973C125.053 11.5499 125.84 11.2829 126.821 11.1963C127.125 11.1674 127.363 11.2468 127.536 11.4344C127.724 11.6076 127.832 11.8819 127.861 12.2571C127.89 12.618 127.803 12.9139 127.601 13.1448C127.413 13.3613 127.125 13.4912 126.735 13.5345L126.259 13.5778C125.378 13.6644 124.714 13.9387 124.267 14.4006C123.819 14.848 123.596 15.4831 123.596 16.3058V20.7876C123.596 21.235 123.48 21.5814 123.249 21.8268C123.018 22.0577 122.679 22.1732 122.232 22.1732ZM135.614 22.1732C135.267 22.1732 134.986 22.0938 134.769 21.935C134.567 21.7763 134.444 21.567 134.401 21.3072C134.358 21.0329 134.408 20.7298 134.553 20.3978L140.268 7.73213C140.456 7.31354 140.68 7.01765 140.94 6.84444C141.214 6.6568 141.524 6.56298 141.871 6.56298C142.203 6.56298 142.499 6.6568 142.758 6.84444C143.033 7.01765 143.264 7.31354 143.451 7.73213L149.189 20.3978C149.347 20.7298 149.405 21.0329 149.362 21.3072C149.319 21.5814 149.196 21.7979 148.994 21.9567C148.792 22.101 148.525 22.1732 148.193 22.1732C147.789 22.1732 147.471 22.0794 147.24 21.8917C147.024 21.6897 146.829 21.3866 146.655 20.9824L145.248 17.7131L146.417 18.4709H137.281L138.45 17.7131L137.064 20.9824C136.877 21.401 136.682 21.7041 136.48 21.8917C136.278 22.0794 135.989 22.1732 135.614 22.1732ZM141.827 9.74565L138.796 16.9554L138.233 16.2625H145.465L144.923 16.9554L141.871 9.74565H141.827ZM152.656 26.0703C152.223 26.0703 151.891 25.9549 151.66 25.7239C151.429 25.493 151.313 25.1538 151.313 24.7063V12.6036C151.313 12.1561 151.429 11.8169 151.66 11.586C151.891 11.355 152.216 11.2396 152.634 11.2396C153.067 11.2396 153.399 11.355 153.63 11.586C153.861 11.8169 153.976 12.1561 153.976 12.6036V14.2923L153.738 13.6428C153.955 12.9067 154.395 12.3149 155.059 11.8674C155.737 11.42 156.524 11.1963 157.419 11.1963C158.343 11.1963 159.151 11.42 159.844 11.8674C160.551 12.3149 161.1 12.95 161.489 13.7727C161.879 14.581 162.074 15.5553 162.074 16.6956C162.074 17.8214 161.879 18.8029 161.489 19.6401C161.1 20.4628 160.558 21.0979 159.865 21.5453C159.173 21.9928 158.357 22.2165 157.419 22.2165C156.538 22.2165 155.766 22 155.102 21.567C154.438 21.1195 153.991 20.5422 153.76 19.8349H154.02V24.7063C154.02 25.1538 153.897 25.493 153.652 25.7239C153.421 25.9549 153.089 26.0703 152.656 26.0703ZM156.661 20.1597C157.195 20.1597 157.664 20.0298 158.068 19.77C158.473 19.5102 158.783 19.1277 158.999 18.6225C159.23 18.1029 159.346 17.4606 159.346 16.6956C159.346 15.5408 159.1 14.682 158.61 14.1191C158.119 13.5418 157.469 13.2531 156.661 13.2531C156.127 13.2531 155.658 13.383 155.254 13.6428C154.85 13.8882 154.532 14.2707 154.301 14.7903C154.085 15.2955 153.976 15.9306 153.976 16.6956C153.976 17.8358 154.222 18.7019 154.713 19.2937C155.203 19.871 155.853 20.1597 156.661 20.1597ZM165.638 26.0703C165.205 26.0703 164.873 25.9549 164.642 25.7239C164.411 25.493 164.295 25.1538 164.295 24.7063V12.6036C164.295 12.1561 164.411 11.8169 164.642 11.586C164.873 11.355 165.198 11.2396 165.616 11.2396C166.049 11.2396 166.381 11.355 166.612 11.586C166.843 11.8169 166.958 12.1561 166.958 12.6036V14.2923L166.72 13.6428C166.937 12.9067 167.377 12.3149 168.041 11.8674C168.719 11.42 169.506 11.1963 170.401 11.1963C171.325 11.1963 172.133 11.42 172.826 11.8674C173.533 12.3149 174.082 12.95 174.471 13.7727C174.861 14.581 175.056 15.5553 175.056 16.6956C175.056 17.8214 174.861 18.8029 174.471 19.6401C174.082 20.4628 173.54 21.0979 172.848 21.5453C172.155 21.9928 171.339 22.2165 170.401 22.2165C169.521 22.2165 168.748 22 168.084 21.567C167.42 21.1195 166.973 20.5422 166.742 19.8349H167.002V24.7063C167.002 25.1538 166.879 25.493 166.634 25.7239C166.403 25.9549 166.071 26.0703 165.638 26.0703ZM169.643 20.1597C170.177 20.1597 170.646 20.0298 171.05 19.77C171.455 19.5102 171.765 19.1277 171.981 18.6225C172.212 18.1029 172.328 17.4606 172.328 16.6956C172.328 15.5408 172.083 14.682 171.592 14.1191C171.101 13.5418 170.451 13.2531 169.643 13.2531C169.109 13.2531 168.64 13.383 168.236 13.6428C167.832 13.8882 167.514 14.2707 167.283 14.7903C167.067 15.2955 166.958 15.9306 166.958 16.6956C166.958 17.8358 167.204 18.7019 167.695 19.2937C168.185 19.871 168.835 20.1597 169.643 20.1597Z" fill="#BFBFD4"/>
</svg>
